<svg id="Layer_1" data-name="Layer 1" xmlns="http://www.w3.org/2000/svg" viewBox="0 0 800 300"><defs><style>.cls-1{fill:#fff;}</style></defs><path class="cls-1" d="M207.22,116.51c5.82-6.23,4.66-16.54-2-23.63s-16.29-8.2-22.19-2-5.64,17.33,1.1,24.43S201.41,122.74,207.22,116.51Z"/><path class="cls-1" d="M208.37,89.92c5.38,5.71,13.11,6.67,16.78,2.6s1.88-11.64-3.44-17.4-12.19-7.49-15.92-3.37S203,84.16,208.37,89.92Z"/><path class="cls-1" d="M177.11,78.18c4.88,5.16,12.47,5.72,16.44,1.46s2.91-11.76-1.88-16.94S180.1,56.64,176,60.93,172.2,73,177.11,78.18Z"/><path class="cls-1" d="M172.7,103.71c5.29-5.5,4.79-14.51-.69-20.24s-13.92-6-19.32-.5a14.6,14.6,0,0,0,0,20.36C158.27,109.08,167.41,109.21,172.7,103.71Z"/><path class="cls-1" d="M235.31,74c1.74-2.1-.19-6.89-3.92-11s-7.86-5.92-9.6-3.8-.41,7.4,3.34,11.48S233.58,76.12,235.31,74Z"/><path class="cls-1" d="M209.05,58c2.21-2.51.79-7.63-2.79-11.65s-8-5.33-10.24-2.79-1.43,8,2.2,12S206.85,60.48,209.05,58Z"/><path class="cls-1" d="M180.4,136.93a12.75,12.75,0,0,0-.25-17.42c-4.64-4.9-12-5.12-16.6-.36a12.94,12.94,0,0,0,.09,17.65A11.46,11.46,0,0,0,180.4,136.93Z"/><path class="cls-1" d="M146.69,109.4a11.53,11.53,0,0,0-16.72.2A12.55,12.55,0,0,0,129.6,127a11.76,11.76,0,0,0,17-.1A12.57,12.57,0,0,0,146.69,109.4Z"/><path class="cls-1" d="M155,161a11.2,11.2,0,0,0,.09-15.31,10,10,0,0,0-14.65,0,11.18,11.18,0,0,0,0,15.31A10,10,0,0,0,155,161Z"/><path class="cls-1" d="M109.42,137.87a7.7,7.7,0,0,0-.12,10.42,6.62,6.62,0,0,0,9.82,0,7.8,7.8,0,0,0,.11-10.5A6.67,6.67,0,0,0,109.42,137.87Z"/><path class="cls-1" d="M94.47,164.11a6.36,6.36,0,0,0-9.36-.29c-2.46,2.65-2.25,7,.41,9.86s6.81,3.09,9.28.46A7.51,7.51,0,0,0,94.47,164.11Z"/><path class="cls-1" d="M126.34,186a7.51,7.51,0,0,0-.14-10.24,6.73,6.73,0,0,0-9.81-.19,7.42,7.42,0,0,0,.24,10.15A6.65,6.65,0,0,0,126.34,186Z"/><path class="cls-1" d="M97.12,200c-1.39,1.48-1.16,4.06.48,5.79s4.07,2,5.45.5,1.2-4.09-.42-5.82S98.49,198.57,97.12,200Z"/><path class="cls-1" d="M72,194.6c1.22-1.34,1-3.85-.66-5.56s-4-2-5.2-.64-.88,3.78.73,5.49S70.76,196,72,194.6Z"/><path class="cls-1" d="M51,205.41c-.89,1-.24,3.19,1.38,4.92s3.62,2.32,4.49,1.3.3-3.28-1.31-5S51.84,204.38,51,205.41Z"/><path class="cls-1" d="M145.63,51c-4.59,4.68-5,12.23-.45,16.94a12,12,0,0,0,17,.09c4.53-4.64,4.1-12.24-.42-17A11,11,0,0,0,145.63,51Z"/><path class="cls-1" d="M120.74,74.56c-5.57,5.68-6.36,14.34-1.31,19.57s14,5,19.66-.7,5.65-14.69.55-19.91S126.34,68.87,120.74,74.56Z"/><path class="cls-1" d="M179.83,43c2.28-2.46,1.67-6.9-1.11-10s-6.68-3.57-9-1.09-2.15,7,.68,10S177.56,45.43,179.83,43Z"/><path class="cls-1" d="M112,101.73c-3.46-3.61-9.33-3.17-13.25.84s-4.39,10-.91,13.71,9.54,3.48,13.44-.57S115.48,105.34,112,101.73Z"/><path class="cls-1" d="M85.22,137.37a6.16,6.16,0,0,0,.25-8.26,5.27,5.27,0,0,0-7.72.27,6,6,0,0,0-.26,8.13A5.24,5.24,0,0,0,85.22,137.37Z"/><path class="cls-1" d="M54.59,154a5.66,5.66,0,0,0,.33,7.67c2.12,2.23,5.36,2.45,7.26.4a5.88,5.88,0,0,0-.3-7.86A4.92,4.92,0,0,0,54.59,154Z"/><path class="cls-1" d="M36.63,175.62c-1.07,1.2-.65,3.4.91,5s3.64,2,4.71.82.72-3.5-.84-5.11S37.71,174.44,36.63,175.62Z"/><path class="cls-1" d="M131.07,59.24c4.34-4.45,4.66-11.12,1.17-14.73s-9.46-2.73-13.81,1.74-5.41,10.8-1.91,14.39S126.72,63.69,131.07,59.24Z"/><path class="cls-1" d="M107.81,86.19c5.7-5.78,6.39-14.39,2.07-18.83s-12-3-17.7,2.73S85,83.7,89.29,88.19,102.13,92,107.81,86.19Z"/><path class="cls-1" d="M152.24,33.36a7.09,7.09,0,0,0,.13-9.74c-2.46-2.61-6.4-2.41-9.08.39s-3.08,7.12-.61,9.7A6.7,6.7,0,0,0,152.24,33.36Z"/><path class="cls-1" d="M80.62,96.86c-2.48-2.59-7.06-1.9-10.29,1.32s-3.94,7.81-1.41,10.45,7.26,2.27,10.48-1S83.13,99.45,80.62,96.86Z"/><path class="cls-1" d="M55.09,129.52c2.14-2.17,2.39-5.6.57-7.5s-5-1.62-7.15.54-2.4,5.39-.58,7.31S53,131.71,55.09,129.52Z"/><path class="cls-1" d="M26.45,145.18a5,5,0,0,0,.24,6.88,4.52,4.52,0,0,0,6.62.34,5.34,5.34,0,0,0-.18-7.13A4.56,4.56,0,0,0,26.45,145.18Z"/><path class="cls-1" d="M235.57,124.28c4-4.29,2.91-11.56-2-16.75s-11.83-6.35-15.76-2.08-3.36,12.33,1.54,17.54S231.63,128.56,235.57,124.28Z"/><path class="cls-1" d="M214.91,148.6c5.23-5.63,5-14.5-.51-20.3s-13.93-6.34-19.14-.79-5.16,15.12.27,21A13.07,13.07,0,0,0,214.91,148.6Z"/><path class="cls-1" d="M250.88,102.85c2.16-2.48.62-7.43-3.15-11.41s-8.36-5.44-10.51-3-1.05,8,2.71,11.94S248.73,105.33,250.88,102.85Z"/><path class="cls-1" d="M189.37,172.08a12.73,12.73,0,0,0,.36-17.37,11.27,11.27,0,0,0-16.62.08c-4.68,4.94-4.76,12.93-.27,17.67S184.7,176.93,189.37,172.08Z"/><path class="cls-1" d="M162.44,183.18a6.92,6.92,0,0,0-9.94.1,7.33,7.33,0,0,0-.13,10.18,6.82,6.82,0,0,0,9.84-.14A7.34,7.34,0,0,0,162.44,183.18Z"/><path class="cls-1" d="M137.11,209a6.62,6.62,0,0,0-9.5-.25,7,7,0,0,0,.27,9.71,6.43,6.43,0,0,0,9.34.26A7,7,0,0,0,137.11,209Z"/><path class="cls-1" d="M108.07,233.19c-1.26,1.36-1,3.8.6,5.48s3.79,2,5,.59,1.08-3.83-.49-5.49S109.33,231.84,108.07,233.19Z"/><path class="cls-1" d="M92.45,250.5c-.91,1-.36,3.24,1.14,4.94s3.44,2.25,4.35,1.2.48-3.31-1-5S93.35,249.45,92.45,250.5Z"/><path class="cls-1" d="M244.49,154.9c4.42-4.7,4.19-12.07-.42-17s-11.77-5.46-16.13-.79-4.27,12.91.25,17.82A11,11,0,0,0,244.49,154.9Z"/><path class="cls-1" d="M221.8,180.28c5.53-5.67,6-14.2,1-19.59s-13.59-5.48-19.08.33-5.8,15.14-.83,20.4S216.27,185.93,221.8,180.28Z"/><path class="cls-1" d="M252.31,129c3,3.1,7.25,3.46,9.45,1.07s1.47-6.62-1.53-9.73-7.11-3.86-9.26-1.47S249.36,125.93,252.31,129Z"/><path class="cls-1" d="M194.48,202.56c3.91-4,4.45-10,1.05-13.54s-9.49-3.33-13.41.69-4.19,10.28-.78,13.83S190.54,206.56,194.48,202.56Z"/><path class="cls-1" d="M168.38,224.15c2.23-2.28,2.48-5.81.46-7.89a5.47,5.47,0,0,0-7.79.35,5.74,5.74,0,0,0-.34,7.95C162.73,226.63,166.13,226.44,168.38,224.15Z"/><path class="cls-1" d="M144.56,241a5.25,5.25,0,0,0-7.45-.06,5.45,5.45,0,0,0,.13,7.52,5,5,0,0,0,7.23.07A5.39,5.39,0,0,0,144.56,241Z"/><path class="cls-1" d="M118.22,262.91c-1.13,1.23-.84,3.48.57,5s3.42,1.82,4.57.59,1-3.52-.46-5.08S119.35,261.69,118.22,262.91Z"/><path class="cls-1" d="M247.43,183.71c4.39-4.33,5.06-10.54,1.44-14.35s-10.07-3.69-14.38.75-4.85,11.41-1.31,15.11S243.05,188.05,247.43,183.71Z"/><path class="cls-1" d="M208.17,193.67c-5.69,5.77-6.51,14.47-2.23,18.87s12,2.94,17.78-2.73,7.17-13.42,2.83-17.95S213.84,187.9,208.17,193.67Z"/><path class="cls-1" d="M268.72,158.59a7,7,0,0,0-.08-9.77c-2.67-2.78-6.85-3-9.43-.29a7.67,7.67,0,0,0,0,10.2A6.52,6.52,0,0,0,268.72,158.59Z"/><path class="cls-1" d="M198.47,220.05c-2.93-3-8.67-2.43-12.54,1.51s-4.44,9.72-1.52,12.72,8.18,2.06,12.08-1.84S201.39,223.06,198.47,220.05Z"/><path class="cls-1" d="M171.42,253.8c2.14-2.2,2.57-5.39.85-7.17s-5-1.44-7.11.76-2.37,5.46-.65,7.23S169.28,256,171.42,253.8Z"/><path class="cls-1" d="M168.54,270.71c-2,2.12-2.44,5.05-1.06,6.48s4,.81,6.05-1.33,2.69-5,1.31-6.39S170.59,268.57,168.54,270.71Z"/><path class="cls-1" d="M142.87,270.45a5,5,0,0,0-.1,6.8,4.28,4.28,0,0,0,6.34-.24,5,5,0,0,0,.35-6.77A4.6,4.6,0,0,0,142.87,270.45Z"/><path class="cls-1" d="M78.39,220.47c-1.06,1.18-.54,3.53,1.07,5.27s3.72,2.22,4.76,1,.69-3.6-.93-5.34S79.45,219.28,78.39,220.47Z"/><path class="cls-1" d="M66.82,234c-.7.87.1,3,1.69,4.73s3.39,2.52,4.09,1.65,0-3.05-1.58-4.81S67.53,233.09,66.82,234Z"/><path class="cls-1" d="M76.28,77.09c3.3-3.26,4.28-7.65,2.36-9.57s-6-.7-9.34,2.52-4.62,7.24-2.68,9.19S73,80.33,76.28,77.09Z"/><path class="cls-1" d="M100.43,53c3.21-3.23,4.1-7.54,2.2-9.43s-5.81-.69-9,2.54S89.12,53.37,91,55.29,97.22,56.27,100.43,53Z"/><path class="cls-1" d="M124.84,30.72c2.92-3,3.5-7.22,1.59-9.2s-5.63-1.05-8.55,2-4,7-2,9S121.92,33.76,124.84,30.72Z"/><path class="cls-1" d="M50.8,94.47c-1.67-1.72-5.2-.85-7.95,1.73s-3.66,6-1.93,7.71,5.39,1.2,8.09-1.42S52.51,96.18,50.8,94.47Z"/><path class="cls-1" d="M25.91,118.22c-1.08-1.09-3.16-.79-4.65.62s-1.84,3.41-.74,4.53,3.2.93,4.68-.5S27,119.32,25.91,118.22Z"/><path class="cls-1" d="M218,225c-3.3,3.26-4.34,7.58-2.49,9.42s5.88.56,9.22-2.66,4.67-7.16,2.8-9.06S221.27,221.76,218,225Z"/><path class="cls-1" d="M242.27,201.34c-3.23,3.14-4.22,7.44-2.31,9.37s6,.78,9.29-2.31,4.45-6.94,2.51-8.93S245.51,198.23,242.27,201.34Z"/><path class="cls-1" d="M264.29,177.85c-2.94,2.86-3.62,7.11-1.58,9.2s6.1,1.25,9.1-1.55,3.81-6.59,1.7-8.73S267.26,175,264.29,177.85Z"/><path class="cls-1" d="M192,252c-2.68,2.73-3.46,6.3-1.93,7.87s4.79.51,7.5-2.22,3.81-6.11,2.27-7.66S194.64,249.31,192,252Z"/><path class="cls-1" d="M371.13,20.4a32.4,32.4,0,1,0,32.4,32.4A32.4,32.4,0,0,0,371.13,20.4Z"/><path class="cls-1" d="M385.4,106.31H356.88a17.41,17.41,0,0,0-17.41,17.41V261.24a17.36,17.36,0,0,0,16.65,17.32h30.05a17.34,17.34,0,0,0,16.62-17.32h0V123.72h0A17.4,17.4,0,0,0,385.4,106.31Z"/><path class="cls-1" d="M480.47,20.4a32.4,32.4,0,1,0,32.41,32.4A32.4,32.4,0,0,0,480.47,20.4Z"/><path class="cls-1" d="M494.75,106.31H466.23a17.41,17.41,0,0,0-17.41,17.41V261.24a17.36,17.36,0,0,0,16.65,17.32h30a17.34,17.34,0,0,0,16.63-17.32h0V123.72h0A17.4,17.4,0,0,0,494.75,106.31Z"/><path class="cls-1" d="M762.63,129.67H705.15a17.58,17.58,0,0,0-17.58,17.57v22.62a17.59,17.59,0,0,0,17.51,17.56h11.35v21.63c-11.25,5.64-25,8.49-40.9,8.49-18.13,0-33.11-6-45.8-18.2s-18.67-28-18.67-48.53,6.3-36.47,19.25-48.8c13.13-12.5,29-18.58,48.62-18.58,10.42,0,19.56,1.26,27.17,3.73,7.27,2.37,14.76,6.81,22.25,13.21A12.81,12.81,0,0,0,747.17,98l20.32-29a12.8,12.8,0,0,0-2-17C741.64,31,711.54,20.4,676,20.4c-35.8,0-66.75,12.52-92,37.19s-38.23,56.09-38.23,93.07,12.64,68.05,37.59,92.39,56,36.55,92.67,36.55c43.15,0,77.05-13.24,100.78-39.36a12.84,12.84,0,0,0,3.33-8.61V146.46A17.53,17.53,0,0,0,762.63,129.67Z"/></svg>